<svg xmlns="http://www.w3.org/2000/svg" viewBox="0 0 192 192">
  <rect width="192" height="192" rx="40" fill="#0f172a"/>
  <rect x="28" y="28" width="56" height="56" rx="8" fill="none" stroke="#ffffff" stroke-width="8"/>
  <rect x="40" y="40" width="32" height="32" rx="4" fill="#ffffff"/>
  <rect x="108" y="28" width="56" height="56" rx="8" fill="none" stroke="#ffffff" stroke-width="8"/>
  <rect x="120" y="40" width="32" height="32" rx="4" fill="#ffffff"/>
  <rect x="28" y="108" width="56" height="56" rx="8" fill="none" stroke="#ffffff" stroke-width="8"/>
  <rect x="40" y="120" width="32" height="32" rx="4" fill="#ffffff"/>
  <rect x="108" y="108" width="12" height="12" fill="#ffffff"/>
  <rect x="128" y="108" width="12" height="12" fill="#ffffff"/>
  <rect x="148" y="108" width="16" height="12" fill="#ffffff"/>
  <rect x="108" y="128" width="16" height="12" fill="#ffffff"/>
  <rect x="132" y="128" width="12" height="12" fill="#ffffff"/>
  <rect x="108" y="148" width="12" height="16" fill="#ffffff"/>
  <rect x="128" y="148" width="16" height="16" fill="#ffffff"/>
  <rect x="152" y="140" width="12" height="24" fill="#ffffff"/>
</svg>
